<svg xmlns="http://www.w3.org/2000/svg" viewBox="0 0 24 24"><defs></defs><title>time-stopwatch-half</title><line x1="16.728" y1="7.522" x2="18.625" y2="5.625" style="fill: none; stroke: currentColor; stroke-linecap: round; stroke-linejoin: round; stroke-width: 1.5px;"></line><line x1="18.25" y1="5.25" x2="19" y2="6" style="fill: none; stroke: currentColor; stroke-linecap: round; stroke-linejoin: round; stroke-width: 1.5px;"></line><line x1="10.75" y1="5.25" x2="10.75" y2="0.75" style="fill: none; stroke: currentColor; stroke-linecap: round; stroke-linejoin: round; stroke-width: 1.5px;"></line><line x1="13" y1="0.75" x2="8.5" y2="0.75" style="fill: none; stroke: currentColor; stroke-linecap: round; stroke-linejoin: round; stroke-width: 1.5px;"></line><path d="M10.75,5.25v18a9,9,0,0,0,0-18Z" style="fill: none; stroke: currentColor; stroke-linecap: round; stroke-linejoin: round; stroke-width: 1.5px; fill-rule: evenodd;"></path><path d="M4.375,13.875a.375.375,0,1,0,.375.375.375.375,0,0,0-.375-.375h0" style="fill: none; stroke: currentColor; stroke-linecap: round; stroke-linejoin: round; stroke-width: 1.5px;"></path><path d="M6.242,18.383a.375.375,0,0,0-.265.64.375.375,0,1,0,.53-.53.374.374,0,0,0-.265-.11h0" style="fill: none; stroke: currentColor; stroke-linecap: round; stroke-linejoin: round; stroke-width: 1.5px;"></path><path d="M5.977,9.477a.374.374,0,1,0,.265-.11h0a.374.374,0,0,0-.265.11" style="fill: none; stroke: currentColor; stroke-linecap: round; stroke-linejoin: round; stroke-width: 1.5px;"></path><path d="M16.375,13.875a.375.375,0,1,0,.375.375.375.375,0,0,0-.375-.375h0" style="fill: none; stroke: currentColor; stroke-linecap: round; stroke-linejoin: round; stroke-width: 1.5px;"></path><path d="M14.727,17.853a.372.372,0,0,0-.265.11.375.375,0,1,0,.265-.11h0" style="fill: none; stroke: currentColor; stroke-linecap: round; stroke-linejoin: round; stroke-width: 1.5px;"></path><path d="M14.727,9.9a.372.372,0,0,0-.265.11.375.375,0,1,0,.265-.11h0" style="fill: none; stroke: currentColor; stroke-linecap: round; stroke-linejoin: round; stroke-width: 1.5px;"></path></svg>