<svg xmlns="http://www.w3.org/2000/svg" viewBox="0 0 24 24"><defs></defs><title>task-checklist-remove</title><path d="M20.25,9V5.249a1.5,1.5,0,0,0-1.5-1.5h-4" style="fill: none; stroke: currentColor; stroke-linecap: round; stroke-linejoin: round; stroke-width: 1.5px;"></path><path d="M6.25,3.749h-4a1.5,1.5,0,0,0-1.5,1.5v16.5a1.5,1.5,0,0,0,1.5,1.5H10.5" style="fill: none; stroke: currentColor; stroke-linecap: round; stroke-linejoin: round; stroke-width: 1.5px;"></path><path d="M14.421,4.736a.751.751,0,0,1-.711.513H7.291a.751.751,0,0,1-.712-.513l-1-3A.749.749,0,0,1,6.291.749h8.418a.749.749,0,0,1,.712.987Z" style="fill: none; stroke: currentColor; stroke-linecap: round; stroke-linejoin: round; stroke-width: 1.5px;"></path><path d="M8.25,20.249H4.5a.75.75,0,0,1-.75-.75V6.749" style="fill: none; stroke: currentColor; stroke-linecap: round; stroke-linejoin: round; stroke-width: 1.5px;"></path><line x1="17.25" y1="6.749" x2="17.25" y2="8.249" style="fill: none; stroke: currentColor; stroke-linecap: round; stroke-linejoin: round; stroke-width: 1.5px;"></line><line x1="6.75" y1="9.749" x2="11.25" y2="9.749" style="fill: none; stroke: currentColor; stroke-linecap: round; stroke-linejoin: round; stroke-width: 1.5px;"></line><line x1="6.75" y1="14.249" x2="8.25" y2="14.249" style="fill: none; stroke: currentColor; stroke-linecap: round; stroke-linejoin: round; stroke-width: 1.5px;"></line><circle cx="17.25" cy="17.249" r="6" style="fill: none; stroke: currentColor; stroke-linecap: round; stroke-linejoin: round; stroke-width: 1.5px;"></circle><line x1="14.25" y1="17.249" x2="20.25" y2="17.249" style="fill: none; stroke: currentColor; stroke-linecap: round; stroke-linejoin: round; stroke-width: 1.5px;"></line></svg>