<svg xmlns="http://www.w3.org/2000/svg" viewBox="0 0 24 24"><defs></defs><title>modern-architecture</title><path d="M.97,6.22A.75.75,0,0,0,1.5,7.5h21a.75.75,0,0,0,.75-.75V4.5a.75.75,0,0,0-.75-.75H5.925A6,6,0,0,0,1.682,5.507Z" style="fill: none; stroke: currentColor; stroke-linecap: round; stroke-linejoin: round; stroke-width: 1.5px;"></path><path d="M6.75,7.5v15a.75.75,0,0,1-.75.75H3a.75.75,0,0,1-.75-.75V7.5" style="fill: none; stroke: currentColor; stroke-linecap: round; stroke-linejoin: round; stroke-width: 1.5px;"></path><path d="M14.25,7.5v15a.75.75,0,0,1-.75.75h-3a.75.75,0,0,1-.75-.75V7.5" style="fill: none; stroke: currentColor; stroke-linecap: round; stroke-linejoin: round; stroke-width: 1.5px;"></path><path d="M21.75,7.5v15a.75.75,0,0,1-.75.75H18a.75.75,0,0,1-.75-.75V7.5" style="fill: none; stroke: currentColor; stroke-linecap: round; stroke-linejoin: round; stroke-width: 1.5px;"></path><path d="M6.5.75h2a.5.5,0,0,1,.5.5v2.5a0,0,0,0,1,0,0H6a0,0,0,0,1,0,0V1.25A.5.5,0,0,1,6.5.75Z" style="fill: none; stroke: currentColor; stroke-linecap: round; stroke-linejoin: round; stroke-width: 1.5px;"></path><path d="M18.5.75h2a.5.5,0,0,1,.5.5v2.5a0,0,0,0,1,0,0H18a0,0,0,0,1,0,0V1.25A.5.5,0,0,1,18.5.75Z" style="fill: none; stroke: currentColor; stroke-linecap: round; stroke-linejoin: round; stroke-width: 1.5px;"></path><line x1="2.25" y1="11.25" x2="3.75" y2="11.25" style="fill: none; stroke: currentColor; stroke-linecap: round; stroke-linejoin: round; stroke-width: 1.5px;"></line><line x1="2.25" y1="14.25" x2="3.75" y2="14.25" style="fill: none; stroke: currentColor; stroke-linecap: round; stroke-linejoin: round; stroke-width: 1.5px;"></line><line x1="2.25" y1="17.25" x2="3.75" y2="17.25" style="fill: none; stroke: currentColor; stroke-linecap: round; stroke-linejoin: round; stroke-width: 1.5px;"></line><line x1="9.75" y1="11.25" x2="11.25" y2="11.25" style="fill: none; stroke: currentColor; stroke-linecap: round; stroke-linejoin: round; stroke-width: 1.5px;"></line><line x1="9.75" y1="14.25" x2="11.25" y2="14.25" style="fill: none; stroke: currentColor; stroke-linecap: round; stroke-linejoin: round; stroke-width: 1.5px;"></line><line x1="9.75" y1="17.25" x2="11.25" y2="17.25" style="fill: none; stroke: currentColor; stroke-linecap: round; stroke-linejoin: round; stroke-width: 1.5px;"></line><line x1="17.25" y1="11.25" x2="18.75" y2="11.25" style="fill: none; stroke: currentColor; stroke-linecap: round; stroke-linejoin: round; stroke-width: 1.5px;"></line><line x1="17.25" y1="14.25" x2="18.75" y2="14.25" style="fill: none; stroke: currentColor; stroke-linecap: round; stroke-linejoin: round; stroke-width: 1.5px;"></line><line x1="17.25" y1="17.25" x2="18.75" y2="17.25" style="fill: none; stroke: currentColor; stroke-linecap: round; stroke-linejoin: round; stroke-width: 1.5px;"></line></svg>