<svg xmlns="http://www.w3.org/2000/svg" viewBox="0 0 24 24"><defs></defs><title>time-stopwatch-3-quarters</title><path d="M12,19.5a.375.375,0,1,0,.375.375A.375.375,0,0,0,12,19.5h0" style="fill: none; stroke: currentColor; stroke-linecap: round; stroke-linejoin: round; stroke-width: 1.5px;"></path><path d="M17.625,13.875A.375.375,0,1,0,18,14.25a.375.375,0,0,0-.375-.375h0" style="fill: none; stroke: currentColor; stroke-linecap: round; stroke-linejoin: round; stroke-width: 1.5px;"></path><path d="M15.977,17.853a.372.372,0,0,0-.265.11.375.375,0,1,0,.265-.11h0" style="fill: none; stroke: currentColor; stroke-linecap: round; stroke-linejoin: round; stroke-width: 1.5px;"></path><path d="M8.023,17.853a.375.375,0,0,0-.266.64.375.375,0,1,0,.531-.53.373.373,0,0,0-.265-.11h0" style="fill: none; stroke: currentColor; stroke-linecap: round; stroke-linejoin: round; stroke-width: 1.5px;"></path><path d="M15.977,9.9a.372.372,0,0,0-.265.11.375.375,0,1,0,.265-.11h0" style="fill: none; stroke: currentColor; stroke-linecap: round; stroke-linejoin: round; stroke-width: 1.5px;"></path><line x1="18" y1="7.5" x2="19.875" y2="5.625" style="fill: none; stroke: currentColor; stroke-linecap: round; stroke-linejoin: round; stroke-width: 1.5px;"></line><line x1="19.5" y1="5.25" x2="20.25" y2="6" style="fill: none; stroke: currentColor; stroke-linecap: round; stroke-linejoin: round; stroke-width: 1.5px;"></line><line x1="12" y1="5.25" x2="12" y2="0.75" style="fill: none; stroke: currentColor; stroke-linecap: round; stroke-linejoin: round; stroke-width: 1.5px;"></line><line x1="14.25" y1="0.75" x2="9.75" y2="0.75" style="fill: none; stroke: currentColor; stroke-linecap: round; stroke-linejoin: round; stroke-width: 1.5px;"></line><path d="M12,5.25v9H3a9,9,0,1,0,9-9Z" style="fill: none; stroke: currentColor; stroke-linecap: round; stroke-linejoin: round; stroke-width: 1.5px; fill-rule: evenodd;"></path><path d="M7.757,9.477a.374.374,0,0,0-.265-.11h0a.376.376,0,1,0,.265.11" style="fill: none; stroke: currentColor; stroke-linecap: round; stroke-linejoin: round; stroke-width: 1.5px;"></path></svg>